<svg xmlns="http://www.w3.org/2000/svg" width="70" height="17" viewBox="0 0 70 17">
    <g fill="#000105" fill-rule="evenodd">
        <path d="M0 16.398h4.09v-5.42h4.129V6.984h-4.13v-2.47h5.677V.593H0v15.805M35.392 5.735c0 .901-.728.999-1.041.999h-2.397V4.737h2.397c.564 0 1.04.457 1.04.998zm4.04 0c0-2.98-2.24-5.143-5.327-5.143h-6.241v15.806h4.09v-5.147l3.344 5.147h4.869l-3.993-5.942c1.997-.781 3.258-2.58 3.258-4.72zM49.108 10.41c0 2.118-1.019 2.39-1.906 2.39-.807 0-1.88-.247-1.88-2.39V.592h-4.318v10.39c0 3.537 2.49 5.915 6.198 5.915 3.664 0 6.223-2.433 6.223-5.916V.592h-4.317v9.818M15.891 12.029c-1.082-.765-1.795-2.063-1.795-3.534 0-2.346 1.815-4.256 4.047-4.256.482 0 .943.094 1.373.258L21.303.783a7.609 7.609 0 0 0-3.16-.688c-4.406 0-7.99 3.768-7.99 8.4 0 3.084 1.594 5.778 3.956 7.239l1.782-3.705M22.177 1.256l-1.783 3.705c1.082.765 1.796 2.063 1.796 3.534 0 2.346-1.816 4.255-4.047 4.255-.483 0-.944-.094-1.373-.257l-1.788 3.714a7.61 7.61 0 0 0 3.16.688c4.406 0 7.99-3.768 7.99-8.4 0-3.084-1.594-5.778-3.955-7.239M55.708 3.135v13.263h4.089v-3.617l-4.09-9.646M66.024.592L62.86 8.15 59.697.592h-3.989l6.912 16.305h.705l2.55-6.048v5.55h4.09V.591h-3.941"/>
    </g>
</svg>
